<svg width="32" height="32" viewBox="0 0 128 128" fill="none" xmlns="http://www.w3.org/2000/svg">
<g clip-path="url(#clip0_1_2)">
<path d="M86.928 5.544C90.4267 7.84799 93.1573 10.8773 95.12 14.632C97.0827 18.3013 98.064 22.0133 98.064 25.768C98.064 31.7413 96.1013 38.9093 92.176 47.272L63.632 109.096L26.128 19.88L37.776 13.864L67.344 86.952L82.704 54.824C84.496 50.3013 85.8187 46.8027 86.672 44.328C87.5253 41.8533 87.952 39.4213 87.952 37.032C87.952 29.352 84.112 22.6107 76.432 16.808L86.928 5.544Z" fill="black"/>
<path d="M91.2117 123.296C90.0721 123.609 88.8443 123.667 87.5281 123.471C86.234 123.287 85.0328 122.8 83.9247 122.009C82.8213 121.234 82.1299 120.338 81.8505 119.319C81.2633 117.178 81.6303 115.741 82.9514 115.007L93.8427 108.317C93.8214 105.464 93.7107 103.266 93.5107 101.725L93.3401 99.3765C92.0352 101.591 90.2874 103.713 88.0966 105.743C85.9058 107.774 83.904 109.037 82.091 109.535C78.0335 110.647 74.1215 108.601 70.3549 103.397L67.7442 106.062C66.9288 106.88 66.3769 107.439 66.0884 107.741C65.7999 108.043 65.5216 108.314 65.2534 108.555C64.7563 109.044 64.4128 109.315 64.2229 109.367C64.0157 109.424 63.8004 109.316 63.577 109.043C63.3489 108.752 63.1662 108.357 63.0289 107.856C62.8869 107.338 62.9782 106.961 63.3029 106.723C63.6039 106.399 64.2774 105.741 65.3234 104.749C67.8622 102.363 69.1331 101.04 69.1358 100.779C68.2456 97.5331 67.9819 94.236 68.3446 90.8877C68.7198 87.5174 69.616 84.4219 71.0331 81.6013C72.4674 78.776 74.4566 76.2812 77.0005 74.1169C79.5444 71.9526 82.4307 70.4278 85.6594 69.5423C86.9717 69.1824 88.3031 69.0957 89.6538 69.2822C91.0218 69.464 92.2314 69.847 93.2827 70.4313C95.6054 71.725 97.0485 73.3992 97.6119 75.4539C98.0002 76.8697 97.8957 77.9101 97.2984 78.5752C97.0397 78.8504 96.7417 79.1177 96.4045 79.3773C96.0798 79.6149 95.8876 79.7604 95.828 79.8139L94.4024 81.0124L75.9886 98.1479C77.0088 100.04 78.4007 101.561 80.1641 102.711C81.9276 103.862 83.6899 104.195 85.451 103.712C88.1445 102.973 90.6769 100.97 93.048 97.7022C93.0745 97.5279 93.0742 96.7482 93.0471 95.3633C93.0153 93.9611 92.9786 93.0151 92.9371 92.5252L98.091 91.1118L98.5746 104.958C100.518 103.312 103.168 99.6052 106.525 93.8392L107.306 96.6881C106.294 98.6178 104.833 100.903 102.921 103.544C101.021 106.162 99.6103 107.821 98.688 108.52C98.9544 112.605 98.4127 115.91 97.0627 118.433C95.7347 120.97 93.7843 122.59 91.2117 123.296ZM93.885 111.619C93.3047 112.075 92.4677 112.611 91.3741 113.227C90.2853 113.859 89.3894 114.383 88.6865 114.799C87.9836 115.215 87.3853 115.741 86.8916 116.377C86.4151 117.009 86.2976 117.765 86.5391 118.646C86.7853 119.544 87.3659 120.341 88.2808 121.037C89.1956 121.733 90.1106 121.955 91.0257 121.704C91.9408 121.453 92.6035 120.891 93.0136 120.017C93.4238 119.144 93.6807 118.117 93.7842 116.938C93.9821 114.748 94.0157 112.975 93.885 111.619ZM91.2652 81.1487C92.3443 80.2773 92.7583 79.384 92.5074 78.4689C92.0007 76.6214 90.9849 75.0157 89.4598 73.6518C87.9472 72.2658 86.6212 71.7291 85.4816 72.0416C83.7377 72.5198 82.1436 73.3747 80.6991 74.6063C79.2499 75.8206 78.0578 77.2614 77.1227 78.9288C76.2001 80.5741 75.474 82.3605 74.9445 84.288C73.8571 88.2434 73.832 92.1118 74.869 95.8931L84.2104 87.5112C85.0149 86.7893 85.9449 85.9495 87.0003 84.9917C89.2805 82.8812 90.7021 81.6002 91.2652 81.1487Z" fill="black"/>
</g>
<defs>
<clipPath id="clip0_1_2">
<rect width="128" height="128" fill="white"/>
</clipPath>
</defs>
</svg>
